<?xml version="1.0" encoding="UTF-8"?>
<svg width="36px" height="36px" viewBox="0 0 36 36" version="1.1" xmlns="http://www.w3.org/2000/svg" xmlns:xlink="http://www.w3.org/1999/xlink">
    <!-- Generator: Sketch 52.1 (67048) - http://www.bohemiancoding.com/sketch -->
    <title>User</title>
    <desc>Created with Sketch.</desc>
    <g id="理财-新版" stroke="none" stroke-width="1" fill="none" fill-rule="evenodd">
        <g id="余币宝详情页-立即购买-copy-3" transform="translate(-399.000000, -871.000000)">
            <g id="锁定规则" transform="translate(359.000000, 851.000000)">
                <g id="User" transform="translate(40.000000, 20.000000)">
                    <circle id="Oval-2" fill="#FF8200" cx="18" cy="18" r="18"></circle>
                    <g id="文档" transform="translate(10.000000, 9.000000)" fill-rule="nonzero">
                        <path d="M0.990108565,0.0108564536 C0.449457177,0.0108564536 0.00868516285,0.451628468 0.00868516285,0.992279855 L0.00868516285,17.0077201 C0.00868516285,17.5483715 0.449457177,17.9891435 0.990108565,17.9891435 L14.7170084,17.9891435 C15.2576598,17.9891435 15.6984318,17.5483715 15.6984318,17.0077201 L15.6984318,3.93437877 L11.7749095,0.0108564536 L0.990108565,0.0108564536 Z" id="Shape" fill="#FFFFFF"></path>
                        <path d="M15.6984318,3.93437877 L12.7563329,3.93437877 C12.2178528,3.93437877 11.7749095,3.49360676 11.7749095,2.95295537 L11.7749095,0.0108564536 L15.6984318,3.93437877 Z" id="Shape" fill="#F0EFFF"></path>
                        <path d="M7.3628468,6.71145959 L4.42074789,6.71145959 C4.15150784,6.71145959 3.93003619,6.48998794 3.93003619,6.22074789 C3.93003619,5.95150784 4.15150784,5.73003619 4.42074789,5.73003619 L7.3628468,5.73003619 C7.63208685,5.73003619 7.8535585,5.95150784 7.8535585,6.22074789 C7.8535585,6.49215923 7.63208685,6.71145959 7.3628468,6.71145959 Z M11.2841978,9.6535585 L4.42074789,9.6535585 C4.15150784,9.6535585 3.93003619,9.43208685 3.93003619,9.1628468 C3.93003619,8.89360676 4.15150784,8.6721351 4.42074789,8.6721351 L11.2841978,8.6721351 C11.5534379,8.6721351 11.7749095,8.89360676 11.7749095,9.1628468 C11.7749095,9.43208685 11.5556092,9.6535585 11.2841978,9.6535585 Z M11.2841978,12.5956574 L4.42074789,12.5956574 C4.15150784,12.5956574 3.93003619,12.3741858 3.93003619,12.1049457 C3.93003619,11.8357057 4.15150784,11.614234 4.42074789,11.614234 L11.2841978,11.614234 C11.5534379,11.614234 11.7749095,11.8357057 11.7749095,12.1049457 C11.7749095,12.3741858 11.5556092,12.5956574 11.2841978,12.5956574 Z" id="Shape" fill="#E96C42"></path>
                    </g>
                </g>
            </g>
        </g>
    </g>
</svg>