<?xml version="1.0" encoding="UTF-8"?>
<svg width="36px" height="36px" viewBox="0 0 36 36" version="1.1" xmlns="http://www.w3.org/2000/svg" xmlns:xlink="http://www.w3.org/1999/xlink">
    <!-- Generator: Sketch 52.1 (67048) - http://www.bohemiancoding.com/sketch -->
    <title>User</title>
    <desc>Created with Sketch.</desc>
    <g id="理财-新版" stroke="none" stroke-width="1" fill="none" fill-rule="evenodd">
        <g id="余币宝详情页-立即购买-copy-3" transform="translate(-399.000000, -651.000000)">
            <g id="认购流程" transform="translate(359.000000, 631.000000)">
                <g id="User" transform="translate(40.000000, 20.000000)">
                    <circle id="Oval-2" fill="#FF8200" cx="18" cy="18" r="18"></circle>
                    <g id="流程中心" transform="translate(8.000000, 9.000000)" fill="#FFFFFF" fill-rule="nonzero">
                        <path d="M16.2,10.35 C14.445,10.35 12.825,11.835 12.825,13.725 C12.825,15.48 14.31,16.965 16.065,17.1 L16.2,17.1 C17.955,17.1 19.575,15.615 19.575,13.725 C19.575,11.97 18.09,10.35 16.2,10.35 M4.05,10.35 C2.16,10.35 0.675,11.835 0.675,13.725 C0.675,15.48 2.16,16.965 3.915,17.1 L4.05,17.1 C5.805,17.1 7.425,15.615 7.425,13.725 C7.29,11.97 5.805,10.35 4.05,10.35 M10.395,6.84 C12.285,6.84 13.77,5.355 13.77,3.465 C13.77,1.71 12.285,0.09 10.395,0.09 C8.64,0.225 7.155,1.71 7.155,3.6 C7.155,5.355 8.64,6.84 10.395,6.84 M4.05,9.675 C4.32,7.92 5.4,6.435 6.615,5.49 C6.615,5.22 6.48,4.95 6.345,4.545 C4.59,5.76 3.375,7.65 3.105,9.675 L4.05,9.675 M16.335,9.675 C16.74,9.675 17.01,9.81 17.415,9.81 C17.145,7.65 16.065,5.895 14.31,4.68 C14.175,5.085 14.04,5.355 13.905,5.625 C15.255,6.705 16.065,8.055 16.335,9.675 M12.96,16.29 C12.15,16.695 11.205,16.83 10.26,16.83 C9.18,16.83 8.235,16.56 7.425,16.155 C7.29,16.425 7.02,16.695 6.75,16.965 C7.83,17.505 9.045,17.91 10.395,17.91 C11.745,17.91 12.825,17.505 13.77,17.1 C13.365,16.83 13.23,16.56 12.96,16.29" id="Shape"></path>
                    </g>
                </g>
            </g>
        </g>
    </g>
</svg>