<?xml version="1.0" encoding="UTF-8"?>
<svg width="36px" height="36px" viewBox="0 0 36 36" version="1.1" xmlns="http://www.w3.org/2000/svg" xmlns:xlink="http://www.w3.org/1999/xlink">
    <!-- Generator: Sketch 52.1 (67048) - http://www.bohemiancoding.com/sketch -->
    <title>User</title>
    <desc>Created with Sketch.</desc>
    <g id="理财-新版" stroke="none" stroke-width="1" fill="none" fill-rule="evenodd">
        <g id="余币宝详情页-立即购买-copy-3" transform="translate(-399.000000, -1215.000000)">
            <g id="常见问题" transform="translate(360.000000, 1195.000000)">
                <g id="User" transform="translate(39.000000, 20.000000)">
                    <circle id="Oval-2" fill="#FF8200" cx="18" cy="18" r="18"></circle>
                    <g id="帮助" transform="translate(9.000000, 9.000000)" fill-rule="nonzero">
                        <path d="M17.2782321,5.49626786 C16.8253393,4.42575 16.1773393,3.46435714 15.3519107,2.63892857 C14.5264821,1.8135 13.5649286,1.16533929 12.49425,0.712607143 C11.3858036,0.243642857 10.2080893,0.00594642857 8.99453571,0.00594642857 C7.78098214,0.00594642857 6.60342857,0.243642857 5.49498214,0.712446429 C4.42430357,1.16517857 3.46291071,1.81333929 2.63748214,2.63876786 C1.81205357,3.46419643 1.16389286,4.42558929 0.711160714,5.49610714 C0.242196429,6.60471429 0.00466071429,7.78210714 0.00466071429,8.9955 C0.00466071429,10.2088929 0.242357143,11.3862857 0.711160714,12.4948929 C1.16226191,13.5630493 1.81647553,14.5334534 2.63748214,15.3522321 C3.45632541,16.1732757 4.42677862,16.8275402 5.49498214,17.2787143 C6.60358929,17.7475179 7.78114286,17.9852143 8.99453571,17.9852143 C10.2079286,17.9852143 11.3858036,17.7475179 12.4940893,17.2787143 C13.562354,16.8275656 14.5328645,16.1732992 15.35175,15.3522321 C16.172725,14.5334273 16.8269342,13.5630298 17.2780714,12.4948929 C17.7470357,11.3862857 17.9845714,10.2088929 17.9845714,8.9955 C17.9845714,7.78210714 17.7471964,6.604875 17.2782321,5.49626786 Z" id="Shape" fill="#FFFFFF"></path>
                        <path d="M7.21703571,7.22523214 L6.01392857,7.22523214 C6.01392857,6.66016071 6.06857143,6.213375 6.17801786,5.88535714 C6.33294643,5.41157143 6.63814286,5.00142857 7.09408929,4.65476786 C7.34914286,4.45435714 7.65466071,4.29942857 8.01016071,4.18982143 C8.35542456,4.08196952 8.71494493,4.02665453 9.07666071,4.02573214 C9.88794643,4.02573214 10.5623036,4.253625 11.1002143,4.70925 C11.6834464,5.20151786 11.9753036,5.86703571 11.9753036,6.70548214 C11.9753036,7.14294643 11.8795179,7.52142857 11.6881071,7.84028571 C11.5330179,8.10482143 11.2005,8.47848214 10.6900714,8.96142857 C10.29825,9.33541071 10.0475357,9.59978571 9.93808929,9.75439286 C9.64623214,10.1465357 9.50046429,10.7162679 9.50046429,11.4635893 L8.29719643,11.4635893 C8.29719643,10.7344286 8.39298214,10.1740179 8.58439286,9.781875 C8.73016071,9.49033929 9.0675,9.07103571 9.59625,8.52396429 C9.99723214,8.10482143 10.2432857,7.84044643 10.3345714,7.731 C10.571625,7.43014286 10.6900714,7.06098214 10.6900714,6.62335714 C10.6900714,6.24969643 10.580625,5.92151786 10.3618929,5.63898214 C10.0611964,5.25616071 9.61875,5.06475 9.03567857,5.06475 C8.28819643,5.06475 7.76860714,5.35194643 7.47691071,5.92617857 C7.30366071,6.26351786 7.21703571,6.69664286 7.21703571,7.22523214 Z M9.59625,12.5712321 L9.59625,13.9659107 L8.29719643,13.9659107 L8.29719643,12.5712321 L9.59625,12.5712321 Z" id="Shape" fill="#E96C42"></path>
                    </g>
                </g>
            </g>
        </g>
    </g>
</svg>