<?xml version="1.0" encoding="UTF-8"?>
<svg width="64px" height="64px" viewBox="0 0 64 64" version="1.1" xmlns="http://www.w3.org/2000/svg" xmlns:xlink="http://www.w3.org/1999/xlink">
    <!-- Generator: Sketch 51.3 (57544) - http://www.bohemiancoding.com/sketch -->
    <title>系统</title>
    <desc>Created with Sketch.</desc>
    <defs></defs>
    <g id="首页+交易" stroke="none" stroke-width="1" fill="none" fill-rule="evenodd">
        <g id="Index-新1-Copy-6" transform="translate(-360.000000, -1532.000000)">
            <g id="Mesa-de-trabajo-1-copy@4x-Copy" transform="translate(0.000000, 1182.000000)">
                <g id="Group-15" transform="translate(360.000000, 202.000000)">
                    <g id="系统" transform="translate(0.000000, 148.000000)">
                        <g>
                            <path d="M50.6985421,6.02854589 C49.7898748,6.54584779 49.0480405,7.32247418 48.5737531,8.25771108 C43.8785761,4.97404913 38.164259,3.04761905 32,3.04761905 C16.0100415,3.04761905 3.04761905,16.0100415 3.04761905,32 C3.04761905,47.9899585 16.0100415,60.952381 32,60.952381 C47.9899585,60.952381 60.952381,47.9899585 60.952381,32 C60.952381,25.835741 59.0259509,20.1214239 55.7422889,15.4262469 C56.6775258,14.9519595 57.4541522,14.2101252 57.9714541,13.3014579 C61.7649518,18.561216 64,25.0195963 64,32 C64,49.673112 49.673112,64 32,64 C14.326888,64 0,49.673112 0,32 C0,14.326888 14.326888,0 32,0 C38.9804037,0 45.438784,2.23504819 50.6985421,6.02854589 Z M53.3333333,12.952381 C52.0709682,12.952381 51.047619,11.9290318 51.047619,10.6666667 C51.047619,9.40430152 52.0709682,8.38095238 53.3333333,8.38095238 C54.5956985,8.38095238 55.6190476,9.40430152 55.6190476,10.6666667 C55.6190476,11.9290318 54.5956985,12.952381 53.3333333,12.952381 Z" id="Shape" fill="#6F8FF1" fill-rule="nonzero"></path>
                            <g id="自动化开放平台" transform="translate(12.000000, 12.000000)" fill="#97CDFF" fill-rule="nonzero">
                                <path d="M13.9184466,27.7777778 L25.627616,27.7777778 C26.7322546,27.7777778 27.6159655,26.8888889 27.6159655,25.7777778 L27.6159655,14 C27.6159655,12.8888889 26.7322546,12 25.627616,12 L13.9184466,12 C12.813808,12 11.9300971,12.8888889 11.9300971,14 L11.9300971,25.7777778 C12.1510248,26.8888889 13.0347357,27.7777778 13.9184466,27.7777778 Z M15.9067961,16 L23.6392664,16 L23.6392664,23.7777778 L15.9067961,23.7777778 L15.9067961,16 Z" id="Shape"></path>
                                <path d="M37.7786408,22 L34.6856527,22 L34.6856527,18 L37.7786408,18 C38.8832794,18 39.7669903,17.1111111 39.7669903,16 C39.7669903,14.8888889 38.8832794,14 37.7786408,14 L34.6856527,14 L34.6856527,7.11111109 C34.6856527,6 33.8019417,5.11111109 32.6973031,5.11111109 L25.627616,5.11111109 L25.627616,2 C25.627616,0.888888906 24.743905,0 23.6392664,0 C22.5346278,0 21.6509169,0.888888906 21.6509169,2 L21.6509169,5.11111109 L18.1160734,5.11111109 L18.1160734,2 C18.1160734,0.888888906 17.2323624,0 16.1277238,0 C15.0230852,0 14.1393743,0.888888906 14.1393743,2 L14.1393743,5.11111109 L7.06968715,5.11111109 C5.96504854,5.11111109 5.08133763,6 5.08133763,7.11111109 L5.08133763,14 L1.98834951,14 C0.883710913,14 0,14.8888889 0,16 C0,17.1111111 0.883710913,18 1.98834951,18 L5.08133763,18 L5.08133763,22 L1.98834951,22 C0.883710913,22 0,22.8888889 0,24 C0,25.1111111 0.883710913,26 1.98834951,26 L5.08133763,26 L5.08133763,32.8888889 C5.08133763,34 5.96504854,34.8888889 7.06968715,34.8888889 L14.1393743,34.8888889 L14.1393743,38 C14.1393743,39.1111111 15.0230852,40 16.1277238,40 C17.2323624,40 18.1160734,39.1111111 18.1160734,38 L18.1160734,34.8888889 L21.8718447,34.8888889 L21.8718447,38 C21.8718447,39.1111111 22.7555556,40 23.8601942,40 C24.9648328,40 25.8485437,39.1111111 25.8485437,38 L25.8485437,34.8888889 L32.9182308,34.8888889 C34.0228694,34.8888889 34.9065803,34 34.9065803,32.8888889 L34.9065803,26 L37.9995685,26 C39.1042071,26 39.987918,25.1111111 39.987918,24 C39.7669903,22.8888889 38.8832794,22 37.7786408,22 Z M30.7089536,30.8888889 L9.05803666,30.8888889 L9.05803666,9.11111109 L30.7089536,9.11111109 L30.7089536,30.8888889 Z" id="Shape"></path>
                            </g>
                        </g>
                    </g>
                </g>
            </g>
        </g>
    </g>
</svg>