<?xml version="1.0" encoding="UTF-8"?>
<svg width="64px" height="62px" viewBox="0 0 64 62" version="1.1" xmlns="http://www.w3.org/2000/svg" xmlns:xlink="http://www.w3.org/1999/xlink">
    <!-- Generator: Sketch 51.3 (57544) - http://www.bohemiancoding.com/sketch -->
    <title>全球</title>
    <desc>Created with Sketch.</desc>
    <defs></defs>
    <g id="首页+交易" stroke="none" stroke-width="1" fill="none" fill-rule="evenodd">
        <g id="Index-新1-Copy-6" transform="translate(-360.000000, -1385.000000)">
            <g id="Mesa-de-trabajo-1-copy@4x-Copy" transform="translate(0.000000, 1182.000000)">
                <g id="Group-15" transform="translate(360.000000, 202.000000)">
                    <g id="全球" transform="translate(0.000000, 1.000000)">
                        <g id="Shape">
                            <path d="M22.274744,15.5878692 C22.274744,18.4548018 24.6340725,20.7789098 27.5444516,20.7789098 C30.4548308,20.7789098 32.8141592,18.4548018 32.8141592,15.5878692 C32.8141592,12.7209366 30.4548308,10.3968285 27.5444516,10.3968285 C24.6340725,10.3968285 22.274744,12.7209366 22.274744,15.5878692 Z M14.4500267,32.4194252 C14.4500267,34.0700833 15.8084279,35.4082061 17.4841007,35.4082061 C19.1597736,35.4082061 20.5181748,34.0700833 20.5181748,32.4194252 C20.5181748,30.768767 19.1597736,29.4306442 17.4841007,29.4306442 C15.8084279,29.4306442 14.4500267,30.768767 14.4500267,32.4194252 Z M39.3613717,47.0487215 C39.3613717,48.1781192 40.2908041,49.0936769 41.4373171,49.0936769 C42.5838301,49.0936769 43.5132625,48.1781192 43.5132625,47.0487215 C43.5132625,45.9193238 42.5838301,45.0037661 41.4373171,45.0037661 C40.2908041,45.0037661 39.3613717,45.9193238 39.3613717,47.0487215 Z" fill="#97CDFF" fill-rule="nonzero"></path>
                            <path d="M58.6836329,13.8575223 L59.6417616,12.4417839 C60.9192664,10.08222 62.9952119,6.464222 61.8773951,3.16083251 C61.2386427,1.58778989 60.1208259,0.801268583 59.3223853,0.486660059 C56.4479994,-0.45716551 52.6154848,1.90239841 51.9767323,2.3743112 C51.1782918,2.84622398 51.0186037,3.79004955 51.497668,4.57657086 C51.9767323,5.36309217 52.934861,5.52039643 53.7333015,5.04848365 C55.0108064,4.26196234 57.2464399,3.16083251 58.3642567,3.63274529 C58.5239448,3.63274529 58.6836329,3.79004955 58.843321,4.26196234 C59.4820735,6.14961348 57.8851924,8.98109019 56.7673756,11.0260456 C54.0526777,15.9024777 50.3798512,20.306997 46.7070247,24.8688206 C38.0838668,35.2509019 28.1832041,44.0599405 16.366284,51.6105451 C15.8872196,51.9251536 15.4081553,52.2397621 14.7694029,52.5543707 C8.38187852,47.5206343 4.22998768,39.6554212 4.22998768,30.8463826 C4.22998768,15.4305649 16.8453483,3.00352825 32.494783,3.00352825 C36.0079214,3.00352825 39.2016836,3.63274529 42.2357577,4.73387512 C42.3954458,4.73387512 42.5551339,4.89117939 42.714822,4.89117939 C43.6729506,4.89117939 44.3117031,4.26196234 44.3117031,3.31813677 C44.3117031,2.68891972 43.8326388,2.05970268 43.1938863,1.90239841 C39.840436,0.643964321 36.1676095,0.0147472745 32.3350949,0.0147472745 C15.0887791,-0.142556987 1.0362255,13.700218 1.0362255,30.8463826 C1.0362255,36.1947275 2.47341848,41.2284638 4.86874012,45.6329832 C4.22998768,46.5768087 1.99435415,49.5655897 0.55716117,53.0262834 C-0.400967485,55.2285431 -0.0815912671,57.2734985 1.19591361,58.6892369 C2.15404226,59.7903667 3.75092335,60.4195837 5.50749255,60.4195837 C6.14624499,60.4195837 6.94468554,60.2622795 7.58343797,60.1049752 C10.1384477,59.3184539 12.5337694,57.9027156 14.6097148,56.4869772 C19.7197343,59.947671 25.7878824,61.9926264 32.494783,61.9926264 C49.9007869,61.8353221 63.9533405,47.9925471 63.9533405,30.8463826 C63.9533405,24.5542121 62.0370832,18.7339544 58.6836329,13.8575223 Z M6.62530932,56.95889 C5.50749255,57.2734985 4.22998768,57.1161943 3.59123524,56.4869772 C2.95248281,55.8577602 3.27185903,54.9139346 3.43154713,54.1274133 C4.38967579,51.9251536 5.66718066,49.722894 6.62530932,48.4644599 C8.22219041,50.6667195 9.97875961,52.5543707 11.8950169,54.2847175 C10.2981358,55.3858474 8.54156663,56.3296729 6.62530932,56.95889 Z M32.494783,58.6892369 C27.0653873,58.6892369 21.9553678,57.1161943 17.6437888,54.4420218 C17.803477,54.2847175 17.9631651,54.2847175 18.1228532,54.1274133 C30.0994614,46.4195045 40.3195004,37.4531615 49.1023464,26.7564718 C51.8170442,23.4530823 54.372054,20.306997 56.7673756,16.8463033 C59.1626972,20.9362141 60.7595783,25.8126462 60.7595783,30.8463826 C60.7595783,46.2622002 48.1442177,58.6892369 32.494783,58.6892369 Z" fill="#6F8FF1" fill-rule="nonzero"></path>
                        </g>
                    </g>
                </g>
            </g>
        </g>
    </g>
</svg>