<?xml version="1.0" encoding="UTF-8"?>
<svg width="16px" height="16px" viewBox="0 0 16 16" version="1.1" xmlns="http://www.w3.org/2000/svg" xmlns:xlink="http://www.w3.org/1999/xlink">
    <!-- Generator: Sketch 51.3 (57544) - http://www.bohemiancoding.com/sketch -->
    <title>Shape Copy 5</title>
    <desc>Created with Sketch.</desc>
    <defs></defs>
    <g id="首页+交易" stroke="none" stroke-width="1" fill="none" fill-rule="evenodd">
        <g id="Index-新1-Copy-6" transform="translate(-1676.000000, -40.000000)" fill="#8898DF" fill-rule="nonzero">
            <g id="首页头部导航">
                <g transform="translate(30.000000, 3.000000)" id="Group-18">
                    <g>
                        <g id="User" transform="translate(1646.000000, 10.000000)">
                            <g id="Group-14">
                                <path d="M7.23220893,27.0000032 L8.76754436,27 C9.25805289,27 9.67905293,27.3497617 9.72605062,27.79624 L9.84206079,28.8984602 C10.2467959,29.0205886 10.6382591,29.1830079 11.0105708,29.3832776 L11.8728561,28.6852377 C12.0212712,28.5652696 12.2057995,28.501699 12.4066522,28.501699 C12.6724546,28.5041983 12.9265554,28.6113832 13.1138439,28.8000109 L14.1997397,29.8859068 C14.5465328,30.2327013 14.5969947,30.7776268 14.3145131,31.1266476 L13.6164733,31.9889329 C13.8166581,32.3612872 13.9790741,32.7527433 14.1012928,33.1574455 L15.20376,33.2734557 C15.6502383,33.320453 16,33.7414534 16,34.2319619 L16,35.7673032 C16,36.2578117 15.6502365,36.6788118 15.2035113,36.7258095 L14.1012911,36.8420669 C13.9791157,37.2467064 13.8166981,37.6380826 13.6164733,38.0103307 L14.3145132,38.8726161 C14.5969945,39.2216369 14.5465344,39.7665623 14.1997398,40.1133569 L13.1140927,41.1992527 C12.924618,41.3887277 12.6668717,41.4975646 12.407148,41.4975646 C12.2060465,41.4975646 12.0215187,41.4339942 11.8731049,41.313779 L11.0108195,40.6159861 C10.6384844,40.8162126 10.2470265,40.9786292 9.84230843,41.1008039 L9.72629827,42.2032711 C9.67905395,42.6497494 9.25805356,42.9995111 8.76754503,42.9995111 L7.23220379,42.9995111 C6.74169526,42.9995111 6.32069522,42.6497494 6.27369752,42.2032711 L6.15744004,41.1008039 C5.75280229,40.9786286 5.36142613,40.816211 4.98917868,40.6159865 L4.12689333,41.3140264 C3.97823129,41.4339945 3.79370296,41.4975651 3.59309722,41.4975651 C3.32729487,41.4950659 3.07319404,41.3878809 2.88590554,41.1992532 L1.80025842,40.113606 C1.45346539,39.7668114 1.4030035,39.221886 1.68548502,38.8728652 L2.38352488,38.0103329 C2.18330003,37.638083 2.02088316,37.2467069 1.89870718,36.8420694 L0.79624001,36.7260592 C0.349761711,36.6790619 0,36.2578145 0,35.767306 L0,34.2319647 C0,33.7417049 0.349761711,33.3204562 0.79624001,33.2734585 L1.89895589,33.1574483 C2.021133,32.7528088 2.18355056,32.3614327 2.38377502,31.9891835 L1.68573515,31.1268981 C1.40325381,30.7778773 1.45371396,30.232705 1.80050855,29.8859104 L2.88615567,28.8002632 C3.07587734,28.6107882 3.33337488,28.5019513 3.59334734,28.5019513 C3.78706401,28.4996207 3.97560596,28.5644791 4.12689471,28.68549 L4.98942704,29.3835299 C5.36167694,29.183305 5.75305483,29.0208866 6.1576925,28.8987104 L6.27370266,27.7962432 C6.32070001,27.3497649 6.7417004,27.0000032 7.23220893,27.0000032 Z M7.08268307,29.6640086 L6.44674359,29.856024 C6.10606178,29.9588894 5.77654285,30.0956368 5.46312808,30.2642156 L4.8773619,30.579286 L4.36033803,30.1608631 L3.57519665,29.5254358 L2.52559034,30.5750421 L3.57957903,31.8770294 L3.26446073,32.4628845 C3.09588251,32.7762983 2.95913582,33.1058157 2.85626934,33.4465001 L2.66424868,34.0824551 L2.00358252,34.1519599 L1,34.2575408 L1,35.7419792 L2.6640057,35.9170788 L2.85602097,36.5530187 C2.9588867,36.8937021 3.09563286,37.223219 3.26421059,37.5366319 L3.57928105,38.122398 L3.16085815,38.6394219 L2.5254407,39.4245749 L3.57503236,40.4741752 L4.87702569,39.4201816 L5.46288144,39.7353017 C5.77629254,39.9038793 6.1058085,40.0406254 6.44648925,40.1434897 L7.08227742,40.3354581 L7.15192592,40.9959333 L7.25775529,41.9995111 L8.74221828,41.9995111 L8.91732225,40.335464 L9.5533131,40.1434734 C9.8940866,40.040602 10.2236939,39.9038472 10.5371994,39.7352568 L11.1229152,39.4202828 L11.6398829,39.838632 L12.4250829,40.4740448 L13.4745494,39.4243379 L12.4206684,38.1224837 L12.7357885,37.5366279 C12.9043667,37.2232158 13.0411124,36.8937002 13.1439765,36.5530189 L13.3359395,35.9172458 L13.9963972,35.8475835 L15,35.7417278 L15,34.2575357 L13.3360319,34.08244 L13.1439942,33.4465465 C13.0410646,33.1057162 12.9042821,32.7760426 12.7356927,32.4624576 L12.4207601,31.8766666 L12.8392281,31.3597351 L13.4745475,30.574928 L12.4247171,29.5250889 L11.1227114,30.5790925 L10.5368486,30.2639519 C10.2234291,30.0953609 9.89388872,29.9586338 9.55317713,29.8558244 L8.91709949,29.6638887 L8.74197297,28.0000001 L7.25778266,28.0000031 L7.08268307,29.6640086 Z M8,32 C9.65385714,32 11,33.3457143 11,35 C11,36.6542857 9.65385714,38 8,38 C6.34614286,38 5,36.6542857 5,35 C5,34.7633063 5.19187779,34.5714286 5.42857143,34.5714286 C5.66526507,34.5714286 5.85714286,34.7633063 5.85714286,35 C5.85714286,36.1815714 6.81842857,37.1428571 8,37.1428571 C9.18157143,37.1428571 10.1428571,36.1815714 10.1428571,35 C10.1424353,34.6995865 10.0789278,34.4026082 9.95644531,34.1282974 C9.47334821,33.046364 8.20465123,32.5609079 7.12271754,33.044 C7.11948116,33.0455038 7.11622612,33.0469672 7.11295318,33.0483897 C6.89587673,33.142739 6.64341668,33.0432469 6.54906869,32.8261704 C6.45471936,32.6090939 6.55421155,32.3566339 6.771288,32.2622859 C7.158288,32.0882859 7.57185943,32.0000002 8.00000229,32.0000002 Z" id="Shape-Copy-5"></path>
                            </g>
                        </g>
                    </g>
                </g>
            </g>
        </g>
    </g>
</svg>