<?xml version="1.0" encoding="UTF-8"?>
<svg width="64px" height="64px" viewBox="0 0 64 64" version="1.1" xmlns="http://www.w3.org/2000/svg" xmlns:xlink="http://www.w3.org/1999/xlink">
    <!-- Generator: Sketch 51.3 (57544) - http://www.bohemiancoding.com/sketch -->
    <title>产品</title>
    <desc>Created with Sketch.</desc>
    <defs></defs>
    <g id="首页+交易" stroke="none" stroke-width="1" fill="none" fill-rule="evenodd">
        <g id="Index-新1-Copy-6" transform="translate(-1056.000000, -1532.000000)">
            <g id="Mesa-de-trabajo-1-copy@4x-Copy" transform="translate(0.000000, 1182.000000)">
                <g id="Group-15" transform="translate(360.000000, 202.000000)">
                    <g id="产品" transform="translate(696.000000, 148.000000)">
                        <g>
                            <path d="M50.6985421,6.02854589 C49.7898748,6.54584779 49.0480405,7.32247418 48.5737531,8.25771108 C43.8785761,4.97404913 38.164259,3.04761905 32,3.04761905 C16.0100415,3.04761905 3.04761905,16.0100415 3.04761905,32 C3.04761905,47.9899585 16.0100415,60.952381 32,60.952381 C47.9899585,60.952381 60.952381,47.9899585 60.952381,32 C60.952381,25.835741 59.0259509,20.1214239 55.7422889,15.4262469 C56.6775258,14.9519595 57.4541522,14.2101252 57.9714541,13.3014579 C61.7649518,18.561216 64,25.0195963 64,32 C64,49.673112 49.673112,64 32,64 C14.326888,64 0,49.673112 0,32 C0,14.326888 14.326888,0 32,0 C38.9804037,0 45.438784,2.23504819 50.6985421,6.02854589 Z M53.3333333,12.952381 C52.0709682,12.952381 51.047619,11.9290318 51.047619,10.6666667 C51.047619,9.40430152 52.0709682,8.38095238 53.3333333,8.38095238 C54.5956985,8.38095238 55.6190476,9.40430152 55.6190476,10.6666667 C55.6190476,11.9290318 54.5956985,12.952381 53.3333333,12.952381 Z" id="Shape" fill="#6F8FF1" fill-rule="nonzero"></path>
                            <g id="创新模式" transform="translate(16.000000, 11.000000)" fill="#97CDFF" fill-rule="nonzero">
                                <path d="M9.52673736,-2.72837308e-14 C11.3678022,1.64493974 13.7158982,2.85518074 16.241209,2.67734941 C18.6139182,2.73168674 20.750341,1.52638556 22.4781853,-2.72837308e-14 L22.8621507,-2.72837308e-14 C23.0147523,2.73662652 24.1568032,5.46337348 26.3129165,7.20710845 C27.8487781,8.68903615 29.9901235,9.143494 31.9985578,9.56831326 L31.9985578,10.9909639 L31.9493315,10.2895181 C30.0147366,12.6013253 29.1483532,15.846747 29.9852008,18.7809639 C30.3740889,20.1986747 31.2453949,21.4039759 31.9985578,22.6438554 L31.9985578,23.3107229 C28.6462446,23.4737349 25.3677709,25.4595181 23.9303621,28.5419277 C23.2658066,29.8410843 23.0541333,31.303253 22.8276922,32.7259036 C22.320661,32.4196386 21.823475,32.0985542 21.3262891,31.7774699 L21.3459796,33.0716867 C21.0309311,33.2149397 20.3959114,33.5014458 20.0808629,33.6496386 C20.8734069,34.0695181 21.4058963,34.4986883 21.5486526,35.4076039 C21.5486526,35.943918 20.1842382,36.384127 20.1842382,36.6875904 C20.1842382,37.0960361 21.1589335,37.0626054 21.3262891,37.4057533 C21.1602886,38.8675355 20.8828952,39.1325498 19.4704564,39.3846988 C18.9328237,39.9455978 18.3712032,40.3332923 17.6786179,40.6838738 C17.1910638,40.93067 16.6301804,41 16.1059616,41 C15.5783778,41 15.016546,40.8892701 14.5138656,40.6838738 C13.6917859,40.3479701 13.115337,39.9922891 12.5344662,39.3550603 C11.3628795,39.4489157 10.7081693,38.5893976 10.4423471,37.5471084 C10.4423471,37.1002395 11.4366923,37.0755407 11.4366923,36.6875904 C10.9591969,36.1343374 10.3488171,35.5712696 10.3488171,35.0179518 C10.3488171,34.5257574 11.343189,34.153494 11.8600655,33.7484337 C11.1265932,33.333494 10.7081693,32.656747 10.5014187,31.856506 C10.068227,32.2368675 9.63011268,32.6122892 9.19692094,32.9926506 C9.03447405,30.5968674 8.32561488,28.166506 6.64207433,26.3980723 C4.97822432,24.4814458 2.49229458,23.473735 0.00144219451,23.2909639 L0.00144219451,22.6191566 C1.36008894,20.8754217 2.37415138,18.7809639 2.35938346,16.523494 C2.49229454,14.1672289 1.37977947,11.9887952 0.0703590224,10.1215663 L0.00144219451,10.8180723 L0.00144219451,9.56831326 C1.48315479,9.22253011 3.01901634,8.96072289 4.35797255,8.19012048 C7.23771296,6.51060241 9.08862304,3.34915663 9.15261726,-2.84217094e-14 L9.52673736,-2.72837308e-14 Z M6.30241265,14.35 C5.45079713,17.8226506 6.97681341,21.6015663 9.63503529,23.8985542 C11.5745528,25.6521687 13.4894571,28.1368675 12.5984605,30.9278313 C13.1005691,30.9574699 14.1097089,31.016747 14.6118175,31.0414458 C14.0063336,28.0133735 14.4789064,24.8914458 14.3263047,21.8238554 C13.0907238,21.3842169 11.451487,20.4308434 11.8994466,18.86 C13.2974744,17.3780723 14.8628717,19.3440964 15.1286939,20.7420482 C14.7742643,19.3836144 14.4887516,17.7189157 15.7883268,16.7704819 C17.7573801,17.1261446 17.2355809,19.3638554 16.8368476,20.7618072 C17.1912772,19.9912048 17.5998558,19.2453012 18.0379702,18.5191566 C18.7714425,18.3561446 19.5049148,18.3709639 20.1842382,18.7315663 C20.563281,20.4160241 19.0372647,21.3595181 17.6786179,21.8287952 C17.5210936,24.6444579 17.9838212,27.5243374 17.4127957,30.2906024 C17.9985891,30.7055421 18.549924,31.283494 19.3916942,31.0315663 C19.2637058,29.8806024 19.0618778,28.6407229 19.5885996,27.5539759 C20.7060373,24.6938554 23.8466773,23.3255421 24.9739603,20.4753012 C26.8740967,16.8692771 25.9092606,12.2506024 23.1082823,9.40036144 C20.563281,6.69831326 16.3987333,5.55722893 12.8888958,6.86626508 C9.58088634,7.9480723 6.98173602,10.9316868 6.30241265,14.35 Z M16.1329111,19.6503614 C16.5021086,19.2749397 16.5661028,18.0646988 15.8818568,18.0696386 C15.5077367,18.4401205 15.4191293,19.6898795 16.1329111,19.6503614 Z M13.8734225,20.3518072 C13.853732,19.6553012 13.5091476,19.3243373 12.8396695,19.3539759 C12.8495148,20.0455421 13.1940991,20.3814458 13.8734225,20.3518072 Z M19.2538605,19.2453012 C18.604073,19.0477109 17.7869159,19.9813253 17.919827,20.6037349 C18.5745372,20.7321687 19.4950696,19.9319277 19.2538605,19.2453012 Z M15.2419145,21.6657831 C15.020396,24.5456627 15.7144873,27.593494 14.8530265,30.34 C15.3797482,30.6215663 15.9163153,30.8833735 16.4578049,31.1303614 C16.5513349,30.9031325 16.7285497,30.4486747 16.8220797,30.2214458 C16.7531629,27.3712048 16.7679308,24.5209639 16.7728534,21.6657831 L15.2419145,21.6657831 Z" id="Shape"></path>
                            </g>
                        </g>
                    </g>
                </g>
            </g>
        </g>
    </g>
</svg>