<?xml version="1.0" encoding="UTF-8"?>
<svg width="16px" height="16px" viewBox="0 0 16 16" version="1.1" xmlns="http://www.w3.org/2000/svg" xmlns:xlink="http://www.w3.org/1999/xlink">
    <!-- Generator: Sketch 51.3 (57544) - http://www.bohemiancoding.com/sketch -->
    <title>Shape Copy 8</title>
    <desc>Created with Sketch.</desc>
    <defs></defs>
    <g id="首页+交易" stroke="none" stroke-width="1" fill="none" fill-rule="evenodd">
        <g id="Index-新1-Copy-6" transform="translate(-1790.000000, -40.000000)" fill="#8898DF" fill-rule="nonzero">
            <g id="首页头部导航">
                <g transform="translate(30.000000, 3.000000)" id="Group-18">
                    <g>
                        <g id="User" transform="translate(1646.000000, 10.000000)">
                            <g id="Group-14">
                                <path d="M129.999016,34.9935156 C129.999016,30.5788281 126.417547,27 121.999594,27 C117.581516,27 114,30.5787969 114,34.9935156 C114,39.0716094 117.056016,42.4361719 121.004437,42.92575 C121.227031,42.9726562 121.498141,42.9999844 121.821031,42.9999844 C121.911672,42.9999844 121.999109,42.9952187 122.083531,42.9865625 C126.462812,42.9415937 129.999016,39.3803594 129.999016,34.9935156 Z M115.142797,34.9935156 C115.142797,34.5090156 115.19325,34.0362969 115.288953,33.5802031 C115.585063,33.8968906 116.282984,33.8894219 116.453187,33.41625 C116.757719,33.59775 117.166984,33.6307812 117.166984,33.9935781 C117.166984,35.1908906 117.209625,36.4744687 118.2975,36.4943125 C118.328125,36.4946875 118.904172,36.7125937 119.178313,37.4236094 C119.273125,37.6693437 119.648063,37.4236094 120.05925,37.4236094 C120.264516,37.4236094 120.05925,37.7694219 120.05925,38.5172187 C120.05925,39.262125 121.665219,40.4090937 121.665219,40.4090937 C121.657781,40.9021719 121.678031,41.300875 121.719063,41.6194062 C121.356562,41.61275 121.051047,41.6607812 120.811031,41.7424844 C117.590672,41.1801562 115.142813,38.3725938 115.142813,34.9935156 L115.142797,34.9935156 Z M123.687609,41.6358906 C123.652062,41.4618594 123.496531,41.3665469 123.212812,41.4411406 C123.439188,40.4770469 123.54925,39.9369844 124.021875,39.5269219 C124.705672,38.9341719 124.103313,38.275 123.582937,38.3526719 C123.172812,38.414625 123.432,37.844875 123.065906,37.8133594 C122.699859,37.7827344 122.221812,37.0546094 121.694969,36.8040781 C121.415703,36.6714531 121.141266,36.3160312 120.710562,36.3000937 C120.328812,36.2852969 119.770922,36.6228906 119.770922,36.3626719 C119.770922,35.5244687 119.686047,34.9263438 119.668594,34.6875 C119.654531,34.4955781 119.543156,34.622875 120.059219,34.6352656 C120.340078,34.6427969 120.202891,34.0711563 120.480875,34.0488125 C120.753906,34.0272187 121.404484,34.3044062 121.57025,34.1939219 C121.724234,34.0910469 122.702203,36.7609531 122.702203,34.6352344 C122.702203,34.383 122.571578,33.9444844 122.702203,33.7056094 C123.218812,32.7616563 123.702438,31.9923281 123.659016,31.8798125 C123.634359,31.8164375 123.130484,31.764125 122.727297,31.8994062 C122.591234,31.9448437 122.770578,32.1579531 122.575172,32.2034687 C121.842938,32.3725 121.196047,32.0060469 121.422594,31.6615937 C121.654562,31.3085625 122.495063,31.5075781 122.56875,30.7994062 C122.611156,30.39375 122.646266,29.9239375 122.669781,29.5747656 C123.655234,29.7288594 123.54675,28.2958594 122.0815,28.1424687 C125.045797,28.1771562 127.557719,30.0915625 128.479484,32.7484375 C128.432859,32.7059219 128.378625,32.6800625 128.315984,32.67375 C127.872984,31.5671875 126.797672,32.3680156 127.162453,33.3440313 C125.208,34.8464375 125.708281,35.8942656 126.350422,36.4943281 C126.688312,36.8097344 127.010453,37.284125 127.220203,37.6247969 C126.991922,38.2905 128.061375,38.0239375 128.588797,36.8942188 C127.917922,39.2209844 126.046328,41.0391875 123.687609,41.6358906 Z" id="Shape-Copy-8"></path>
                            </g>
                        </g>
                    </g>
                </g>
            </g>
        </g>
    </g>
</svg>