<?xml version="1.0" encoding="UTF-8"?>
<svg width="14px" height="16px" viewBox="0 0 14 16" version="1.1" xmlns="http://www.w3.org/2000/svg" xmlns:xlink="http://www.w3.org/1999/xlink">
    <!-- Generator: Sketch 51.3 (57544) - http://www.bohemiancoding.com/sketch -->
    <title>Shape Copy 7</title>
    <desc>Created with Sketch.</desc>
    <defs></defs>
    <g id="首页+交易" stroke="none" stroke-width="1" fill="none" fill-rule="evenodd">
        <g id="Index-新1-Copy-6" transform="translate(-1746.000000, -40.000000)" fill="#8898DF" fill-rule="nonzero">
            <g id="首页头部导航">
                <g transform="translate(30.000000, 3.000000)" id="Group-18">
                    <g>
                        <g id="User" transform="translate(1646.000000, 10.000000)">
                            <g id="Group-14">
                                <path d="M80.9283183,33.2200286 L80.947744,33.3211262 C80.8097358,33.5914196 80.6414237,33.8507373 80.4428076,34.0942593 C80.7033036,34.2389278 80.9520278,34.3986865 81.1881105,34.5720687 L81.2177452,34.726297 C81.2400853,34.6989059 81.2621139,34.6713517 81.2838309,34.6436388 C82.9809345,35.9354084 83.9989023,37.9416469 84.0000255,40.0928485 C83.9998376,40.2547507 83.9998376,40.4970389 84.0000256,40.8197131 L84.0000256,41.5465013 C84.000019,42.3492126 83.3402277,43 82.5263332,43 L71.4736859,43 C70.6597914,43 70.0000001,42.3492126 70.0000001,41.5464251 L70.0000001,40.8196369 C70.0001861,40.4969612 70.0001861,40.2546982 70,40.0928479 C70.0000002,37.9431336 71.0166461,35.936772 72.7126834,34.6441409 C72.7342711,34.6716722 72.756172,34.6990586 72.7783867,34.7262957 L72.8078077,34.5729165 C73.0439336,34.3992394 73.292729,34.239195 73.5533229,34.0942562 C73.3539225,33.8497738 73.1856198,33.5905494 73.0479037,33.3212358 L73.0672587,33.2203331 C73.0490404,33.2304659 73.0308723,33.2406634 73.0127548,33.2509253 C72.1403222,31.4651962 72.5937593,29.2590075 74.226871,27.9631464 C76.1293463,26.4535449 78.9123201,26.7509869 80.4428077,28.6275029 C81.5287413,29.9589595 81.7087817,31.7626069 80.9829288,33.2506355 C80.9647759,33.2403685 80.9465723,33.2301661 80.9283183,33.2200286 Z M82.5263332,42 C82.7909924,42 83.0000236,41.7938295 83.0000256,41.5465013 L83.0000258,40.8202958 C82.9998374,40.4970889 82.9998374,40.2542914 83.0000256,40.0933706 C82.9989177,37.9713697 81.8373444,36.0125888 79.9572969,34.96849 L78.9125685,34.3882921 L79.66787,33.4622216 C80.6695427,32.2340767 80.6695428,30.4876854 79.667871,29.2595417 C78.4835507,27.8074581 76.3229029,27.5765293 74.8484525,28.7464959 C73.3821934,29.9099608 73.1505793,32.0182775 74.328259,33.4622167 L75.0830787,34.3876923 L74.039387,34.9681794 C72.1604098,36.0132409 71.0000002,37.9723287 70.9999993,40.0916983 C71.0001862,40.2542433 71.0001862,40.4970104 71.0000001,40.8196369 L71.0000001,41.5464251 C71.0000001,41.7938287 71.2090238,42 71.4736859,42 L82.5263332,42 Z M75.4999999,37 L78.4999999,37 C78.7761422,37 78.9999999,37.2238576 78.9999999,37.5 C78.9999999,37.7761424 78.7761422,38 78.4999999,38 L75.4999999,38 C75.2238575,38 74.9999999,37.7761424 74.9999999,37.5 C74.9999999,37.2238576 75.2238575,37 75.4999999,37 Z M75.4999999,39 L78.4999999,39 C78.7761422,39 78.9999999,39.2238576 78.9999999,39.5 C78.9999999,39.7761424 78.7761422,40 78.4999999,40 L75.4999999,40 C75.2238575,40 74.9999999,39.7761424 74.9999999,39.5 C74.9999999,39.2238576 75.2238575,39 75.4999999,39 Z" id="Shape-Copy-7"></path>
                            </g>
                        </g>
                    </g>
                </g>
            </g>
        </g>
    </g>
</svg>