<?xml version="1.0" encoding="UTF-8"?>
<svg width="64px" height="64px" viewBox="0 0 64 64" version="1.1" xmlns="http://www.w3.org/2000/svg" xmlns:xlink="http://www.w3.org/1999/xlink">
    <!-- Generator: Sketch 51.3 (57544) - http://www.bohemiancoding.com/sketch -->
    <title>交易</title>
    <desc>Created with Sketch.</desc>
    <defs></defs>
    <g id="首页+交易" stroke="none" stroke-width="1" fill="none" fill-rule="evenodd">
        <g id="Index-新1-Copy-6" transform="translate(-1056.000000, -1384.000000)">
            <g id="Mesa-de-trabajo-1-copy@4x-Copy" transform="translate(0.000000, 1182.000000)">
                <g id="Group-15" transform="translate(360.000000, 202.000000)">
                    <g id="交易" transform="translate(696.000000, 0.000000)">
                        <g>
                            <path d="M50.6985421,6.02854589 C49.7898748,6.54584779 49.0480405,7.32247418 48.5737531,8.25771108 C43.8785761,4.97404913 38.164259,3.04761905 32,3.04761905 C16.0100415,3.04761905 3.04761905,16.0100415 3.04761905,32 C3.04761905,47.9899585 16.0100415,60.952381 32,60.952381 C47.9899585,60.952381 60.952381,47.9899585 60.952381,32 C60.952381,25.835741 59.0259509,20.1214239 55.7422889,15.4262469 C56.6775258,14.9519595 57.4541522,14.2101252 57.9714541,13.3014579 C61.7649518,18.561216 64,25.0195963 64,32 C64,49.673112 49.673112,64 32,64 C14.326888,64 0,49.673112 0,32 C0,14.326888 14.326888,0 32,0 C38.9804037,0 45.438784,2.23504819 50.6985421,6.02854589 Z M53.3333333,12.952381 C52.0709682,12.952381 51.047619,11.9290318 51.047619,10.6666667 C51.047619,9.40430152 52.0709682,8.38095238 53.3333333,8.38095238 C54.5956985,8.38095238 55.6190476,9.40430152 55.6190476,10.6666667 C55.6190476,11.9290318 54.5956985,12.952381 53.3333333,12.952381 Z" id="Shape" fill="#6F8FF1" fill-rule="nonzero"></path>
                            <path d="M21.6400303,34.5517984 L21.6400303,17.9633755 C21.7281888,15.8352006 23.4714607,14.1554814 25.5919973,14.1554814 C27.7125339,14.1554814 29.4558059,15.8352006 29.5439644,17.9633755 L29.5439644,47.0366246 C29.5391065,48.9623679 28.1600571,50.6073527 26.271685,50.9399293 C24.3833129,51.2725059 22.5293751,50.1969089 21.872566,48.3876972 L16.3487031,37.6752949 C15.4664353,35.9669896 16.3145067,34.5540883 18.2591436,34.5540883 L21.6400303,34.5540883 L21.6400303,34.5517984 Z M41.3599697,30.4413319 L41.3599697,47.0343347 C41.2718112,49.1625096 39.5285393,50.8422289 37.4080027,50.8422289 C35.2874661,50.8422289 33.5441941,49.1625096 33.4560356,47.0343347 L33.4560356,17.9633755 C33.4608934,16.0376322 34.8399428,14.3926473 36.728315,14.0600707 C38.6166872,13.7274941 40.470625,14.8030912 41.1274341,16.612303 L46.6512969,27.3247053 C47.5335647,29.0330106 46.6854933,30.4436219 44.7408565,30.4436219 L41.3599697,30.4436219 L41.3599697,30.4413319 Z" id="Combined-Shape" fill="#97CDFF" fill-rule="nonzero"></path>
                        </g>
                    </g>
                </g>
            </g>
        </g>
    </g>
</svg>